<?xml version="1.0" encoding="utf-8"?>
<!-- Generator: Adobe Illustrator 19.0.0, SVG Export Plug-In . SVG Version: 6.00 Build 0)  -->
<svg version="1.1" id="Capa_2" xmlns="http://www.w3.org/2000/svg" xmlns:xlink="http://www.w3.org/1999/xlink" x="0px" y="0px"
	 viewBox="0 0 500 500" style="enable-background:new 0 0 500 500;" xml:space="preserve">
<style type="text/css">
	.st0{fill:#0073A5;}
</style>
<path id="XMLID_69_" class="st0" d="M154.4,338.6c-2-8.5-8.9-14.2-12.3-21.9c-3.5-7.8-3.1-16.6-6.3-24.5c-1.2-0.2-2.3-0.5-3.8-0.8
	c0.1-11.9,5.5-21.4,12.4-31.3c3.1,5.5,2.6,11.1,4.3,16.1c1.7,4.9,6.1,8.5,6.9,13.9c-3.1,1.5-5.7-1.4-8.5-0.3
	c-4.2,7.1,0.8,20.9,10,26.9c31-36.4,61.9-72.9,93.2-109.7c-4.8-6.5-9.5-12.8-14.3-19.2c-5.2,2-8.9,6.2-13.9,7.4
	c-1.9-0.5-3.1-1.5-3.5-3.2c0.3-2,1.9-2.7,3.3-3.8c2.4-1.9,4.9-3.6,7.3-5.6c1.1-0.9,1.6-2.2,1-3.6c-0.7-1.4-1.8-2.4-3.5-2.3
	c-1.3,0.1-2.7,0.4-4,0.6c-10.1,1.7-22.2-6.3-24.4-16.3c-1.6-7.4,1.4-14.7,8-18.7c11.1-6.6,30.5-4.9,33.2,14.4
	c0.5,4-0.4,7.6-2.6,10.8c-2.2,3.1-1.2,5.4,1.7,7.5c6-0.5,9.6-6.3,14.8-7.1c1.9,0.2,2.4,1.6,3.4,2.3c0.9-0.8,1.7-1.6,2.6-2.4
	c5.9,0.7,9.5,6.4,15.2,7.1c2.2-0.8,3-2.4,3.5-3.8c0-1.7-0.6-2.8-1.3-3.8c-7-8.5,0.1-27.5,14-28.2c5.1-0.3,10-0.3,14.7,2
	c11.4,5.6,13.9,19.6,5,28.6c-5.8,5.9-12.8,9-21.3,7c-2.3-0.5-4.6-0.5-5.6,2c-1,2.6,1.1,3.7,2.7,5c3,2.5,6.6,4.1,8.9,7.2
	c-0.1,2.2-1.4,3.1-3.3,3.9c-5-1.1-8.8-5.1-14-7.5c-4.7,6.3-9.4,12.7-14.4,19.3c31.1,36.6,62.1,73.1,93.1,109.6
	c8.5-4,14.1-18.5,10.4-26.6c-2.7-1.4-5.3,1.5-8.7,0.3c0.7-5.5,5.3-9.1,6.9-14.1c1.7-5,1.5-10.4,3.8-15.3
	c6.5,4.1,14.4,23.6,12.4,30.6c-1,0.2-2,0.4-3.1,0.6c-2.2,4.6-2.6,9.5-3.5,14.3c-1.2,6.8-3.6,12.9-7.9,18.4c-3.3,4.2-6,8.6-7.3,13.3
	c-2.4,1.8-4.5,0.6-6.5,0.8c-4,0.5-8,1.3-11.9,2.3c-11.7,3.1-23.3,3-34.6-1.8c-2.6-1.1-5.1-1.5-7.6,0.5c-1.5,1.2-3.5,1.3-5.2,0.4
	c-8.9-4.1-13.3-12-17.6-20.5c12.2,2.1,24.2,4.4,37.1,0.9c-1.7,4.8-5.9,6-7.1,9.4c1.2,2.7,3.5,3.1,5.6,3.3c10,0.9,19.2-2.3,29.1-5.2
	c-28-37.6-55.7-74.9-83.9-112.6c-28,37.7-55.8,74.9-83.6,112.3c12,6.3,30.3,7.6,34.3,2.3c-1.2-3.5-5.2-4.7-7.1-9.2
	c12.8,2.8,24.9,1.3,37.1-1.3c-4.3,8.6-8.7,16.6-17.6,20.6c-1.9,0.9-3.9,0.7-5.6-0.7c-2.1-1.7-4.3-1.5-6.6-0.5
	c-12,5.1-24.3,5-36.7,1.7c-4.6-1.2-9.3-2.3-14.1-1.8C156.3,339.2,155.5,338.8,154.4,338.6z M205.2,158c0.1,7.2,6.1,13,13.7,13
	c7.4,0,13.6-6,13.6-13.1c0-7.2-6.4-13.2-14-13.1C211.1,144.8,205.1,150.7,205.2,158z M308.5,157.9c-0.1-6.4-6.9-12.6-13.9-12.5
	c-6.5,0.1-12.5,6.1-12.4,12.6c0.1,7.1,5.7,12.7,12.6,12.6C302,170.5,308.6,164.4,308.5,157.9z M242.6,182.5
	c4.8,5.7,9.5,11.1,14.3,16.8c4.9-5.8,9.5-11.2,14.3-16.8c-5-3.7-10.4-6.1-14.4-10.5C252.8,176.6,247.3,178.8,242.6,182.5z"/>
<path id="XMLID_68_" class="st0" d="M326.4,384.7c2.2,4.9,4.3,9.8,6.5,14.6c-1.5,1.4-2.9,1.9-5,2c-3.8-8.1-7.7-16.4-11.6-24.8
	c1.5-1.6,3.3-1.9,5.2-2.6c5.9,3.8,11.9,7.7,18,11.6c0.2-0.2,0.4-0.3,0.6-0.5c-2.4-5.2-4.7-10.3-7-15.3c7.6-5.9,15.8-10.2,23.6-14.9
	c1.6,0.8,2.1,2.1,2.8,3.3c-1.5,2.5-4.7,2.7-6.7,5.3c4.2,6.2,8.5,12.5,12.8,18.9c-1.4,1.5-2.9,2.4-5.1,3c-4.3-6.3-8.6-12.6-13-18.9
	c-2.9,1-5.1,2.5-7.7,4.4c3.3,7.3,6.7,14.5,10,21.7c-1.8,1.4-3.5,1.9-5.5,2.5c-5.7-3.6-11.5-7.2-17.3-10.9c-0.2-0.3-0.5-0.5-0.8-0.1
	C326.2,384.3,326.3,384.5,326.4,384.7z"/>
<path id="XMLID_65_" class="st0" d="M363.2,144.2c0.8,5.1-0.5,9.9-1.3,15.4c-2.1-1.7-3.8-3-5.3-4.1c-1.6-6.2,4.2-13.3-3-18.8
	c-2.9,3.2-5.6,6.2-8.4,9.3c-1.8-1.1-3.3-2.1-4.7-4c6.6-7.5,13.2-15,20-22.8c5.1,4.1,10.3,7.6,14.5,12.2c2.3,2.6,2.4,5.5,0.8,8.5
	c-1.8,3.3-5.4,5.2-8.8,4.6c-1.1-0.2-2.1-0.5-3.2-0.8c-0.2-0.3-0.4-0.5-0.7-0.1C363.1,143.8,363.1,144,363.2,144.2z M357,132.8
	c2.4,2.4,4.8,4.2,7.4,5.8c2,1.2,3.8,0.6,5.1-1.2c1.2-1.6,0.8-3.3-0.6-4.6c-2.2-1.9-4.2-4-6.8-5.3C360,128.9,358.7,130.8,357,132.8z"
	/>
<path id="XMLID_62_" class="st0" d="M172.1,144c-1.6,2.2-3.1,3.7-4.5,4.7c-6.7,1-13.4-5-19.7,1.4c3.1,3.1,6,6,8.9,8.9
	c-1,1.7-2.3,2.9-4.2,4.2c-7.4-6.8-14.8-13.6-22.7-20.8c4.5-4.3,8.6-8.4,13-12.2c3.4-2.9,7.1-2.8,10.5-0.3c3.6,2.6,4.4,5.6,2.8,10.3
	c-0.1,0.3-0.2,0.7-0.3,1.4C161.3,141.4,166.5,142.5,172.1,144z M143.9,146.6c2.6-1.7,4.5-4,6.4-6.2c1.4-1.6,1.4-3.3-0.1-4.9
	c-1.5-1.5-3.3-1.7-4.9-0.4c-2.5,1.9-4.8,4-6.7,6.7C140.4,143.5,142.1,145,143.9,146.6z"/>
<path id="XMLID_61_" class="st0" d="M249.1,110.3c0.7,1.6,0.9,2.9,0.9,4.7c-7.6,1.6-15.5,2-23.7,3.1c-1.3-10-2.6-19.7-3.9-29.7
	c7.7-1.5,15.3-1.9,22.8-2.9c0.9,1.6,0.9,3,0.8,4.9c-5.3,0.7-10.7,1.4-16,2.1c-0.5,2.3-0.2,4.2,0.7,6.4c4.9-0.5,9.8-1,14.5-1.5
	c1.3,1.5,1.3,2.9,1,4.8c-4.8,0.6-9.7,1.3-14.7,1.9c-1,2.8,0.2,5.2,0.5,8C237.8,111.5,243.3,110.9,249.1,110.3z"/>
<path id="XMLID_60_" class="st0" d="M177,105c1.5,1.1,2.3,2.2,3,4.1c-4.3,3-8.7,6-13.2,9.1c1,2.1,2.1,3.8,4,5.3
	c4.1-2.7,8.1-5.4,12.2-8.1c1.8,0.6,2.3,2.2,3.4,3.9c-4.1,2.8-8.2,5.6-12.5,8.5c1.3,2.6,2.8,4.6,4.9,6.6c4.7-3.1,9.2-6.1,13.7-9
	c1.7,0.7,2.3,2.2,3.4,3.8c-6.4,4.3-12.7,8.5-19.6,13.1c-6-8.2-12-16.3-18.2-24.7C164.5,113.3,170.8,109.2,177,105z"/>
<path id="XMLID_57_" class="st0" d="M239.1,388c5.6,0,11-0.1,16.3,0c4.4,0.1,7.2,2.5,7.8,6.3c0.6,3.6-1.1,6.6-5,8.4
	c-0.5,0.3-1.1,0.5-1.9,0.9c4,3.3,6.5,7.4,9.4,11.9c-2.6,0-4.8,0-6.7,0c-4.7-3.6-5.5-11.5-13.5-11.4c-1.1,3.9,0.1,7.7-0.7,11.3
	c-1.9,0.7-3.5,0.5-5.7,0.2C239.1,406.7,239.1,397.6,239.1,388z M256.3,393.7c-3.5-2.1-7.2-1-10.9-1c-0.7,2.5-0.6,4.6,0,6.9
	c3.9,0,7.6,0.9,11-1.3C257.1,396.8,257.2,395.5,256.3,393.7z"/>
<path id="XMLID_56_" class="st0" d="M379.1,335.4c1.4-2.2,2.6-3.1,4.1-4.1c6.6,6.9,13,13.8,19.8,20.9c-0.3,0.9-1.9,1.6-3.6,3.1
	c-6.7-1.6-13.6-3.2-20.6-4.8c-0.2,0.4-0.5,0.7-0.7,1.1c4.2,3.7,8.4,7.3,12.4,10.9c-1.2,2.3-2.5,3.2-4.1,4.3
	c-6.4-6.8-12.9-13.7-19.7-20.9c0.4-0.8,1.9-1.8,3.5-3c6.9,1.7,13.8,3.4,20.7,5c0.1-0.2,0.3-0.5,0.4-0.7
	C387.3,343.2,383.2,339.3,379.1,335.4z"/>
<path id="XMLID_55_" class="st0" d="M115.7,316.6c1.7,1.4,2.6,2.8,3.6,4.5c-2.7,6.1-5.5,12.3-8.2,18.4c0.2,0.2,0.5,0.4,0.7,0.6
	c4.8-3.2,9.7-6.4,14.7-9.7c1.1,1.5,2.1,2.7,3.3,4.2c-8.2,5.4-16.1,10.7-24,16c-2-1-2.8-2.8-3.9-4.5c2.7-6,5.3-11.9,8-17.9
	c-0.2-0.2-0.5-0.4-0.7-0.6c-4.7,3.1-9.5,6.1-14.4,9.4c-1.1-1.5-2.1-2.7-3.3-4.2C99.7,327.3,107.6,322,115.7,316.6z"/>
<path id="XMLID_54_" class="st0" d="M293.3,396.8c1,4,1.9,7.5,1.9,11.4c-4.9,4.7-10.7,6.9-17.4,6c-6.4-0.9-10.2-5-11.7-11.2
	c-1.3-5.5-0.5-10.7,4.3-14.2c5.1-3.9,10.9-4.7,17-2.2c2.1,0.9,3.6,2.5,4.3,4.7c-1.4,1.5-3.2,1.5-4.6,2.1c-5.8-3.9-10.4-4-13.5-0.2
	c-2.8,3.3-1.9,11,1.6,14.2c3.5,3.2,8.8,2.7,13.2-1.2c0.3-1.1,0.3-2.1-0.4-3.1c-2.1-0.9-4.1,0.6-6.2,0.2c-1-1.1-0.8-2.4-1-4.1
	C284.8,397.8,288.9,397.7,293.3,396.8z"/>
<path id="XMLID_53_" class="st0" d="M345.5,109.2c1.8,1,3.4,1.9,5.4,2.9c-4.4,7-7.9,14.2-13.1,20.4c-0.3,0.4-0.7,0.7-1.1,0.9
	c-4.1,2.9-10.4,1.8-16.1-3c-3.9-3.2-4.8-7.4-2.2-12.2c3.3-6,6.9-11.8,10.4-17.8c2.3,0.4,3.9,1.4,5.6,3c-3.3,5.5-6.6,10.9-9.7,16.4
	c-2.2,3.8-1.2,6.6,2.5,8.5c3.2,1.6,5.5,1.2,7.6-1.9c2.8-4.3,5.4-8.7,8.1-13.1C343.7,112,344.6,110.7,345.5,109.2z"/>
<path id="XMLID_50_" class="st0" d="M381.2,184.2c-1.6-2.1-2.7-3.5-3.8-4.9c0.5-2.7,2.7-4.2,3.6-6.8c-2.3-3-4.7-6.2-7.1-9.2
	c-2.8,0.1-5,1.6-7.5,1.4c-1.4-1.3-2.5-2.7-3.7-4.9c10.9-2.7,21.5-5.4,32.1-8.1c1.9,1.5,3,3.2,4.2,5.4
	C393.4,165.8,387.5,174.7,381.2,184.2z M391.1,158.5c-4.5,0.9-7.9,1.7-11.4,3.2c1.5,2.3,2.7,4.4,5,6.1
	C386.7,164.8,388.6,162.1,391.1,158.5z"/>
<path id="XMLID_49_" class="st0" d="M301,386c0.3,2.3,0.7,3.9,1.8,5.8c4.5-1.1,9-2.2,13.6-3.4c1.4,1.1,1.4,2.6,1.7,4.3
	c-4.7,1.3-9.2,2.5-13.9,3.8c0.1,2.6,0.8,4.8,2,7.2c5.1-1.3,10.2-2.5,15.3-3.8c1.3,1.1,1.3,2.5,1.5,4.1c-3.5,1.7-7.1,2.1-10.6,3.1
	c-3.5,1-7.1,1.8-11.1,2.8c-2.7-9-5.3-17.7-8.1-27c7.2-1.9,14.2-3.7,21-5.4c1.4,1.4,1.3,2.8,1.8,4.4C311.1,383.3,306.1,384.6,301,386
	z"/>
<path id="XMLID_46_" class="st0" d="M129.4,173.9c3.1,2.3,6,4.4,8.9,6.5c-0.6,2-2,3.4-3.7,4.9c-8.2-5.9-16.4-11.8-25.1-18
	c3.7-4.6,6.8-9.5,11.1-13.2c3.3-2.9,8.3-2.3,12.1,1c3.5,3,4.3,7.1,1.9,11.2C133.2,168.8,131.4,171.1,129.4,173.9z M125,170.6
	c2-3.1,5.5-5.1,4.4-9.3c-0.5-1.8-2.1-2.9-4-2.6c-4,0.5-5.3,4.1-7.6,6.9C120.4,167.4,122.5,168.9,125,170.6z"/>
<path id="XMLID_45_" class="st0" d="M283.2,94.4c-1.7,1.2-3.7,0.8-5.6,1.1c-1.8-3.7-4.4-5.8-8.5-5.1c-3.4,0.6-5.4,2.8-6.1,6.1
	c-0.6,2.4-0.7,4.8-0.5,7.3c0.4,3.5,1.9,6.1,5.5,6.9c3.5,0.8,6.3-0.4,8-3.7c0.3-0.5,0.7-1,1-1.5c2.1,0.1,3.9,0.8,5.5,2
	c-2.4,6.9-8.1,9.9-15.8,8.3c-7-1.4-11.5-7.9-10.9-15.6c0.7-9.2,5.9-14.8,13.9-15.2C277,84.8,282.1,88.2,283.2,94.4z"/>
<path id="XMLID_42_" class="st0" d="M136.8,341.5c2,1.2,3.4,2.5,4.7,4.5c-4.1,8.8-8.3,17.7-12.6,26.9c-2.1-0.9-3.3-2.3-4.4-3.9
	c0.1-2.3,1.8-3.8,2.2-5.8c-2.6-2.7-5.2-5.4-7.9-8.3c-2.2,0.8-4.3,1.6-6.5,2.5c-1.7-1-3-2.2-4.3-4.3
	C117.8,349.1,127.4,345.3,136.8,341.5z M133.1,348.8c-3.1,0.9-6.1,2.2-9.3,3.9c1.9,1.8,3.6,3.4,5.5,5.2c1.6-3.1,3.3-5.7,4.2-8.7
	c0.1-0.2,0.1-0.4,0.2-0.5C133.5,348.7,133.3,348.8,133.1,348.8z"/>
<path id="XMLID_39_" class="st0" d="M229.3,414.3c-0.6-2-1.2-4-1.8-6c-3.8-1.3-7.7-1.1-11.8-1.8c-1.2,1.9-2.3,3.8-3.4,5.6
	c-2.1,0.5-4,0.1-6.2-0.8c5.1-8.7,10.2-17.3,15.3-26c2.1,0.3,4,0.5,6.4,0.8c2.6,9.5,5.2,19,7.9,28.6
	C233.3,415.6,231.4,414.6,229.3,414.3z M223.8,393.2c-2.2,2.8-4.3,5.3-5.1,8.7c2.5,0.3,4.7,1.2,7.3,0.5
	C225.3,399.2,224.6,396.2,223.8,393.2z"/>
<path id="XMLID_36_" class="st0" d="M172.4,400.4c-2.3-0.9-3.9-1.7-5.3-2.9c-0.5-2.3,0.8-4.3,0.6-6.9c-3.1-1.8-6.4-3.6-9.8-5.6
	c-2,1.3-3.8,2.6-5.7,3.9c-1.9-0.6-3.5-1.4-5.2-3.2c8.4-6,16.8-11.9,24.9-17.7c2.3,0.6,3.9,1.6,5.8,3.2
	C176,380.7,174.2,390.4,172.4,400.4z M168.8,385.3c1.1-3.2,1.9-6.1,1.9-9.9c-3.1,2.3-5.7,4.2-8.5,6.3
	C164.5,383.2,166.4,384.5,168.8,385.3z"/>
<path id="XMLID_33_" class="st0" d="M418.7,330.3c-2.3-0.4-4.6-0.7-7.2-1.1c-2,3-4.1,6-6.3,9.2c1.3,1.8,2.6,3.6,4,5.4
	c-0.6,1.8-1.6,3.2-3.4,4.9c-6.3-8-12.5-15.9-18.6-23.7c0.7-2.1,2-3.5,3.4-5.3c10.2,1.8,20.5,3.6,31.1,5.4
	C421.4,327.4,420,328.8,418.7,330.3z M395.5,326.3c1.9,3.1,4,5.5,6.5,8c1.4-2.1,3-3.7,3.9-6.1C402.4,327.3,399.2,326.5,395.5,326.3z
	"/>
<path id="XMLID_32_" class="st0" d="M201.2,127.1c-4.1-9.2-8.1-18.2-12.3-27.6c6.7-2.7,13.1-5.3,19.4-7.9c1.5,1.1,1.7,2.6,2.6,4.4
	c-4.6,1.9-9.1,3.8-13.6,5.7c0.4,2.5,1.4,4.4,2.8,6.4c3.8-1.5,7.5-2.9,11.3-4.4c1.6,0.9,1.6,2.7,2.7,4.4c-4.1,1.7-7.9,3.3-11.8,4.9
	c0.8,4.3,3.3,7.6,4.5,11.6C205.3,126,203.4,126.4,201.2,127.1z"/>
<path id="XMLID_31_" class="st0" d="M143.6,372.6c5.9-3.9,11.8-7.8,17.8-11.7c1.8,0.7,3.4,1.7,5,3.5c-8.6,5.6-17.1,11.1-25.5,16.5
	c-2.2-0.7-3.7-2-5.6-3.3c2.8-9.3,5.6-18.6,8.5-28.1c2.2,0.4,3.6,1.8,5.2,3C147.9,359.4,144.3,365.6,143.6,372.6
	c-0.2,0-0.3,0.1-0.7,0.5C143.4,372.8,143.5,372.7,143.6,372.6z"/>
<path id="XMLID_30_" class="st0" d="M317,94.7c0.1,2-0.4,3.3-1.3,4.9c-2.7-0.6-5.4-1.3-8.6-2.1c-2.3,7.9-4.6,15.8-6.8,23.7
	c-2.2,0.1-3.9-0.4-6.1-1.4c2.1-7.8,4.2-15.6,6.4-23.4c-2.7-1.8-5.7-1.6-8.1-3c-0.6-1.7,0.1-3.1,1.1-4.7
	C301.4,90.8,309.3,92.8,317,94.7z"/>
<path id="XMLID_29_" class="st0" d="M192.1,377.6c-3,7.1-5.8,14-8.9,21.3c4.5,1.7,8.9,3.4,13.2,5c0.5,1.8-0.3,3-1.4,4.5
	c-6.2-2.3-12.5-4.6-19.3-7.1c3.6-8.6,7.1-17,10.7-25.5C188.5,375.8,190.1,376.7,192.1,377.6z"/>
<path id="XMLID_28_" class="st0" d="M382.1,370.2c-1.3,1.8-2.6,2.6-4.5,3.7c-6.3-6.8-12.7-13.8-19.1-20.8c1.2-1.8,2.6-2.8,4.5-3.8
	C369.3,356.3,375.6,363.2,382.1,370.2z"/>
</svg>
